<?xml version="1.0" standalone="no"?>
<!DOCTYPE svg PUBLIC "-//W3C//DTD SVG 20010904//EN"
 "http://www.w3.org/TR/2001/REC-SVG-20010904/DTD/svg10.dtd">
<svg version="1.0" xmlns="http://www.w3.org/2000/svg"
 width="200.000000pt" height="200.000000pt" viewBox="0 0 200.000000 200.000000"
 preserveAspectRatio="xMidYMid meet">

<g transform="translate(0.000000,200.000000) scale(0.100000,-0.100000)"
fill="#000000" stroke="none">
<path d="M560 1400 l0 -60 -120 0 -120 0 0 -60 0 -60 -60 0 -60 0 0 -60 0 -60
-70 0 -70 0 0 -360 0 -360 60 0 60 0 0 -60 0 -60 60 0 60 0 0 -60 0 -60 120 0
120 0 0 -60 0 -60 300 0 300 0 0 60 0 60 300 0 300 0 0 60 0 60 60 0 60 0 0
120 0 120 60 0 60 0 0 60 0 60 -60 0 -60 0 0 60 0 60 -60 0 -60 0 0 180 0 180
-60 0 -60 0 0 60 0 60 -60 0 -60 0 0 60 0 60 -60 0 -60 0 0 60 0 60 -410 0
-410 0 0 -60z m820 -120 l0 -60 60 0 60 0 0 -60 0 -60 60 0 60 0 0 -180 0
-180 -240 0 -240 0 0 60 0 60 -60 0 -60 0 0 180 0 180 60 0 60 0 0 60 0 60
120 0 120 0 0 -60z m-840 -360 l0 -60 60 0 60 0 0 -120 0 -120 -60 0 -60 0 0
-60 0 -60 -180 0 -180 0 0 240 0 240 180 0 180 0 0 -60z m1320 -360 l0 -60
-360 0 -360 0 0 -60 0 -60 300 0 300 0 0 -60 0 -60 -300 0 -300 0 0 60 0 60
-60 0 -60 0 0 60 0 60 60 0 60 0 0 60 0 60 360 0 360 0 0 -60z"/>
<path d="M1380 980 l0 -120 60 0 60 0 0 120 0 120 -60 0 -60 0 0 -120z"/>
</g>
</svg>
